<svg xmlns="http://www.w3.org/2000/svg" viewBox="0 0 36 45" x="0px" y="0px"><title>Монтажная область 43</title><path d="M34.78,9.9987H24.66c2.46-2.21,3.28-5.29,1.9-7.05a3.21039,3.21039,0,0,0-2.27-1.16,6.88314,6.88314,0,0,0-4.87,1.92,9.298,9.298,0,0,0-1.07,1.11005,9.63578,9.63578,0,0,0-1.09-1.71,7.65641,7.65641,0,0,0-4.95-3.09,3.3481,3.3481,0,0,0-2.59.77c-1.85,1.63-1.49,5.18.81,8.1a9.14544,9.14544,0,0,0,1.03,1.11H1.22a1.22487,1.22487,0,0,0-1.22,1.22v6.56a1.22488,1.22488,0,0,0,1.22,1.22H2v15.32a1.67724,1.67724,0,0,0,1.68,1.68H32.32a1.67724,1.67724,0,0,0,1.68-1.68v-15.32h.78a1.22486,1.22486,0,0,0,1.22-1.22v-6.56A1.22486,1.22486,0,0,0,34.78,9.9987Zm-14.78,9v15H16v-22h4v7Zm.74-13.79a5.17555,5.17555,0,0,1,3.16-1.43,1.47457,1.47457,0,0,1,.21.01,1.20083,1.20083,0,0,1,.88.4c.63.8.07,2.79-1.73,4.38a5.23322,5.23322,0,0,1-3.16,1.43,1.47583,1.47583,0,0,1-.21-.01,1.19067,1.19067,0,0,1-.83-.36,5.04771,5.04771,0,0,0,.1-2.4A6.45746,6.45746,0,0,1,20.74,5.20866ZM11.04,2.29869a1.27817,1.27817,0,0,1,.89-.3,1.40713,1.40713,0,0,1,.2.01,5.76083,5.76083,0,0,1,3.57,2.34,7.41918,7.41918,0,0,1,1.38,2.69,2.86192,2.86192,0,0,1-.22,2.56.93675.93675,0,0,1-.1.1,1.27861,1.27861,0,0,1-.89.3,1.4061,1.4061,0,0,1-.2-.01,5.76066,5.76066,0,0,1-3.57-2.34C10.38,5.45866,10.16,3.06871,11.04,2.29869ZM2,11.9987H14v5H2Zm2,7H14v15H4Zm28,15H22v-15H32Zm2-17H22v-5H34Z"/><text x="0" y="51" fill="#000000" font-size="5px" font-weight="bold" font-family="'Helvetica Neue', Helvetica, Arial-Unicode, Arial, Sans-serif">Created by Vadim Solomakhin</text></svg>
